<?xml version="1.0" standalone="no"?>
<!DOCTYPE svg PUBLIC "-//W3C//DTD SVG 1.1//EN" "http://www.w3.org/Graphics/SVG/1.1/DTD/svg11.dtd" >
<!--
2013-9-30: Created.
-->
<svg>
<metadata>
Created by iconfont
</metadata>
<defs>

<font id="iconfont" horiz-adv-x="1024" >
  <font-face
    font-family="iconfont"
    font-weight="500"
    font-stretch="normal"
    units-per-em="1024"
    ascent="896"
    descent="-128"
  />
    <missing-glyph />
    
    <glyph glyph-name="chengyuan" unicode="&#58908;" d="M411.10784 744.2432c117.76 0 180.0704-105.984 180.0704-205.056 0 0 5.632-135.4752-77.056-240.3328-16.128-20.48-20.224-42.1376-16.64-63.1808 8.0384-33.5872 88.064-49.152 113.4592-60.16 25.6-11.0592 72.192-29.0304 116.224-56.1664 40.9088-25.2416 96-67.7376 93.7984-118.8352v-8.0384c0-38.4-32.3584-63.4368-58.5216-88.32L60.49024-95.744C38.98624-78.6944-1.92256-71.68 0.07424-7.4752v7.9872c-0.768 64.6144 83.8144 114.5856 130.56 139.264 61.9008 32.7168 109.568 47.4112 140.0832 60.2624 16.384 6.912 26.0096 19.0976 33.4336 28.7744 18.2784 28.7744 29.8496 60.7232 4.1984 88.7808-60.928 66.6112-77.312 150.528-77.312 221.5936 0 98.0992 64 205.056 180.0192 205.056zM614.16704 814.08c117.76 0 180.1216-105.984 180.1216-205.056 0 0 5.632-135.4752-77.1072-240.3328-16.128-20.48-20.224-42.1376-16.5888-63.1808 7.9872-33.5872 88.064-49.152 113.408-60.16 25.6-11.0592 72.192-28.9792 116.224-56.1664 40.96-25.2416 96.0512-67.6864 93.7984-118.9376v-7.9872c0-38.4-32.4096-63.488-58.5728-88.32h-103.424a113.152 113.152 0 0 1 1.4336 18.0736v7.168c1.9456 56.576-36.8128 109.7728-115.1488 158.1056-39.7824 24.576-80.9984 41.984-108.2368 53.4016l-13.3632 5.7344a330.5472 330.5472 0 0 1-29.9008 10.3424 472.3712 472.3712 0 0 0-39.8848 13.9264 101.7344 101.7344 0 0 0-16.9984 8.704 35.072 35.072 0 0 0 6.7584 21.4016c88.7808 112.5376 88.2688 252.16 87.808 267.1616-0.2048 60.8768-20.3264 121.4976-55.3984 166.5024a213.1456 213.1456 0 0 1-80.384 63.8976 163.6864 163.6864 0 0 0 115.456 45.7216z"  horiz-adv-x="1024" />

    
    <glyph glyph-name="caiwubaobiao" unicode="&#58880;" d="M1019.958 841.459H0.269v-53.356h61.387v-678.535h335.98l-82.89-152.414 63.972-31.583 92.43 169.93a27.917 27.917 0 0 1 4.58 13.851h67.477a27.696 27.696 0 0 1 4.581-13.85l92.268-170.146 63.973 31.582-82.62 152.522H959.11V788.103h60.847V841.459zM577.213 370.742l-183.566 84.615-136.73-125.252-56.806 54.434 193.59 166.157 181.194-95.285 181.733 142.982 51.74-59.23-231.155-168.421h0.054z"  horiz-adv-x="1024" />

    
    <glyph glyph-name="benyueyongjin" unicode="&#58881;" d="M659.596 452.212a248.785 248.785 0 0 1-33.373 28.859 213.112 213.112 0 0 1-5.214 3.793c16.338 8.285 27.23 23.18 27.23 40.471 0 27.206-26.531 47.802-57.74 47.802-7.331 0-13.964-1.186-19.875-3.56-3.072-0.931-5.213-2.118-6.865-3.072-0.931-0.466-3.072 0.232-4.027 1.163a61.44 61.44 0 0 1-11.124 12.102 55.11 55.11 0 0 1-30.767 13.475c-11.59-0.93-21.992-5.911-30.999-13.498a55.482 55.482 0 0 1-11.1-12.055c-0.955-0.955-3.096-1.653-4.027-1.187a32.023 32.023 0 0 1-6.866 3.072 53.108 53.108 0 0 1-19.874 3.56c-31.232 0-57.74-20.829-57.74-47.802 0-17.291 10.892-32.186 27.229-40.471-1.676-0.93-3.328-2.374-5.213-3.793-11.613-8.262-22.738-17.967-33.373-28.859-30.767-31.697-49.687-68.142-49.687-108.38 0-112.175 86.109-165.633 189.998-165.633h3.794c103.866 0 189.998 53.481 189.998 165.632-0.465 40.239-19.642 76.684-50.385 108.381zM572.509 349.51h-39.75v-15.36h29.091a15.36 15.36 0 0 0 15.383-15.383 15.36 15.36 0 0 0-15.36-15.384H532.76v-23.435a15.36 15.36 0 0 0-15.383-15.36 15.36 15.36 0 0 0-15.36 15.36v23.435h-30.534a15.36 15.36 0 0 0-15.383 15.36 15.36 15.36 0 0 0 15.36 15.384h30.534V349.51h-39.517a15.36 15.36 0 0 0-15.36 15.383 15.36 15.36 0 0 0 15.36 15.383h17.99l-28.626 28.626a15.29 15.29 0 0 0 0 21.55 15.29 15.29 0 0 0 21.527 0l43.753-43.776 43.8 43.753a15.29 15.29 0 0 0 21.527 0 15.29 15.29 0 0 0 0-21.527l-28.626-28.626h17.99a15.36 15.36 0 0 0 15.36-15.36c0-8.54-6.144-15.406-14.662-15.406z"  horiz-adv-x="1024" />

    
    <glyph glyph-name="daililiebiao" unicode="&#58882;" d="M842.051 869.107H172.463c-61.548 0-111.616-50.069-111.616-111.563v-743.963c0-61.493 50.068-111.562 111.562-111.562h669.588c61.494 0 111.563 50.069 111.563 111.562V757.544c0 61.494-50.069 111.563-111.563 111.563zM694.38 384.593a37.187 37.187 0 0 0-37.188-37.188h-410.57a37.187 37.187 0 0 0 0 74.375h410.57c20.588 0 37.188-16.707 37.188-37.187zM506.287 683.116a55.781 55.781 0 1 0 0-111.562 55.781 55.781 0 0 0 0 111.562z m-241.071 0a55.781 55.781 0 1 0 0-111.562 55.781 55.781 0 0 0 0 111.562z m501.221-557.433h-520.03a37.187 37.187 0 1 0 0 74.374h519.868a37.187 37.187 0 1 0 0-74.374z m-18.216 445.763a55.781 55.781 0 1 0 0 111.616 55.781 55.781 0 0 0 0-111.562z"  horiz-adv-x="1024" />

    
    <glyph glyph-name="dailiqianbao" unicode="&#58883;" d="M512 896c282.767 0 512-229.233 512-512s-229.233-512-512-512S0 101.233 0 384 229.233 896 512 896z m180.797-396.308H331.203c-13.251 0-24.003-10.773-24.003-24.044v-272.404c0-13.292 10.752-24.044 24.003-24.044h361.594c13.251 0 24.003 10.752 24.003 24.044V299.58h-71.004a39.834 39.834 0 0 0-39.793 39.855c0 22.016 17.818 39.874 39.793 39.874H716.8v96.338c0 13.271-10.752 24.044-24.003 24.044z m-35.594-141.824a18.432 18.432 0 1 1 0.02-36.824 18.432 18.432 0 0 1-0.02 36.824z m-68.608 227.717l-106.987-61.85H651.96l-30.597 53.043a23.982 23.982 0 0 1-32.768 8.807z"  horiz-adv-x="1024" />

    
    <glyph glyph-name="dailikaihu" unicode="&#58884;" d="M976.81861 18.855877A235.238802 235.238802 0 0 0 847.799718-109.570015a255.447785 255.447785 0 0 0-95.60392-18.376985 247.741792 247.741792 0 0 0-174.286853 69.789941 236.046802 236.046802 0 0 0-52.220956 77.011936 224.298812 224.298812 0 0 0-19.185984 93.394921v1.076999a226.34581 226.34581 0 0 0 19.185984 92.532923 232.058805 232.058805 0 0 0 52.274956 76.202936 234.753803 234.753803 0 0 0 78.573934 51.412956 252.483788 252.483788 0 0 0 95.873919 17.945985 231.573806 231.573806 0 0 0 95.60492-18.429984c28.831976-12.12599 55.130954-29.586975 77.603935-51.413957 21.449982-22.202981 38.801967-47.96396 51.412956-76.202936a231.905805 231.905805 0 0 0 19.023984-93.556921 224.136812 224.136812 0 0 0-19.023984-93.393922l-0.214999 0.43z m-103.472913 133.489888l-88.651926-1.078v81.107932a40.957966 40.957966 0 0 1-10.023992 27.807977 41.981965 41.981965 0 0 1-28.239976 11.31699 34.059971 34.059971 0 0 1-26.190978-11.31699 48.17996 48.17996 0 0 1-10.023991-27.807977v-81.107932h-77.765935a41.172965 41.172965 0 0 1-29.101976-11.26299 38.855967 38.855967 0 0 1-12.286989-27.807977 26.783978 26.783978 0 0 1 12.286989-24.574979 46.346961 46.346961 0 0 1 29.101976-8.137993h77.549935v-83.31693a44.083963 44.083963 0 0 1 10.023991-28.669976 33.412972 33.412972 0 0 1 26.191978-11.263991 38.101968 38.101968 0 0 1 28.239977 11.317991 41.927965 41.927965 0 0 1 10.022991 28.561976v83.37093h88.867926v-2.101998a46.723961 46.723961 0 0 1 29.262975 9.215992 31.472974 31.472974 0 0 1 12.12599 25.598978 41.496965 41.496965 0 0 1-41.388965 40.149967zM492.168017 358.752591a268.651774 268.651774 0 1 0 274.147769 269.081774 272.693771 272.693771 0 0 0-274.147769-269.081774z m37.239968-49.311958a282.555763 282.555763 0 0 1-72.485939-189.052842v-0.807999a288.591758 288.591758 0 0 1 136.993885-243.429795H399.580094c-192.501838 0-345.66271 0-345.662709 97.651918v19.454983c0 186.735843 142.112881 316.183734 333.37572 316.183735h142.11288z"  horiz-adv-x="1024" />

    
    <glyph glyph-name="shengyuchongzhi" unicode="&#58885;" d="M922.408 290.385h-43.277V782.12c0 47.212-37.403 84.615-84.615 84.615h-578.29c-47.158 0-84.561-37.403-84.561-84.615v-489.795H88.387c-66.83 0-90.489-86.555-35.408-121.91L470.016-89.25a65.881 65.881 0 0 1 70.764 0l417.037 257.671c55.08 35.409 31.475 121.964-35.409 121.964z m-281.33 51.146a34.493 34.493 0 0 0 33.469-33.415 34.493 34.493 0 0 0-33.415-33.468H540.78v-100.299a34.493 34.493 0 0 0-33.415-33.414 34.493 34.493 0 0 0-33.415 33.414V274.594H373.598a34.493 34.493 0 0 0-33.414 33.468 34.493 34.493 0 0 0 33.414 33.415H473.95v84.615H373.598a34.493 34.493 0 0 0-33.414 33.415 34.493 34.493 0 0 0 33.414 33.414h53.14l-74.805 74.86c-13.797 13.743-13.797 35.409 0 47.212 13.743 13.743 35.408 13.743 47.211 0l94.424-94.424c7.869-7.868 9.809-17.731 9.809-27.54h5.928c0 9.809 1.94 19.672 9.81 27.486l94.423 94.478c13.743 13.743 35.409 13.743 47.211 0 13.744-13.797 13.744-35.409 0-47.212l-74.752-74.752h53.087a34.493 34.493 0 0 0 33.415-33.415 34.493 34.493 0 0 0-33.415-33.414H538.84v-84.615h102.292z"  horiz-adv-x="1024" />

    
    <glyph glyph-name="gerenziliao2" unicode="&#58886;" d="M277.072 628.09a215.579 215.579 0 1 1 431.159 0 215.579 215.579 0 1 1-431.158 0zM393.647 370.742h185.398a370.203 370.203 0 0 0 370.15-370.257 92.43 92.43 0 0 0-92.43-92.376H116.413a92.43 92.43 0 0 0-92.43 92.43 370.203 370.203 0 0 0 370.15 370.203h-0.54z m400.654 145.03h144.006c34.44 0 51.632-17.246 51.632-51.63 0-34.493-17.247-51.632-51.632-51.632H794.301c-34.44 0-51.632 17.193-51.632 51.631 0 34.385 17.247 51.632 51.632 51.632z m0 165.673h144.006c34.44 0 51.632-17.246 51.632-51.631 0-34.439-17.247-51.631-51.632-51.631H794.301c-34.44 0-51.632 17.246-51.632 51.63 0 34.44 17.247 51.632 51.632 51.632z"  horiz-adv-x="1024" />

    
    <glyph glyph-name="xiajichouyong" unicode="&#58887;" d="M328.448 267.17c49.036 29.79 83.41 44.731 103.028 44.731 14.755 0 44.172-14.941 80.896-34.793 24.553-12.404 39.215-19.875 41.659-27.345 2.42-5.004 2.42-27.346-12.242-27.346-14.755 0-58.857 19.875-58.857 19.875s49.036-27.345 95.651-27.345c29.417 0 71.075 5.027 127.488 14.941 4.957 0 9.798-2.444 12.242-7.447v-2.467h-2.444c0-9.938-4.934-17.408-12.218-22.342-56.413-32.256-100.585-49.664-130.025-52.13-41.658 0-127.488 37.282-154.484 47.22-17.175 7.447-49.036 12.38-93.207 14.94v59.579h2.513v-0.07zM402.06 324.305a163.375 163.375 0 0 0-7.378 49.664c0 71.983 44.172 141.592 105.426 168.937-17.176 14.941-29.394 37.26-29.394 54.668 0 34.793 39.215 42.193 85.83 42.193 46.592 0 85.83-7.47 85.83-42.193 0-19.875-12.242-39.727-29.417-54.691 61.254-27.322 105.426-96.838 105.426-168.914 0-57.134-29.417-109.265-73.589-136.61-26.996-2.444-49.035-5.004-66.21-5.004h-9.799c2.42 9.937 0 19.875-2.443 24.878-2.42 7.471-9.798 12.405-19.62 17.408-7.377 4.911-17.174 9.938-29.416 17.408-4.934 2.444-7.377 5.004-14.755 7.448 0 0-9.798 5.027-12.241 7.494-9.798 5.003-17.175 7.447-22.04 12.38-17.175 7.471-29.416 12.405-39.237 12.405-4.934-2.467-14.732-4.934-26.997-7.47z m169.146 54.668v19.852h41.658c7.377 0 12.241 5.027 12.241 12.404 0 7.47-4.957 12.404-12.241 12.404h-29.417l26.997 27.323a12.055 12.055 0 0 1 0 17.408 11.706 11.706 0 0 1-17.199 0l-29.324-29.79c-2.443-2.466-2.443-5.026-2.443-7.47 0 2.444-2.42 5.004-2.42 7.447l-34.374 29.79a11.706 11.706 0 0 1-17.176 0 12.055 12.055 0 0 1 0-17.385l26.997-27.323h-29.44c-7.378 0-12.242-4.933-12.242-12.404 0-7.47 4.957-12.404 12.242-12.404h41.658v-19.852h-41.658c-7.378 0-12.242-5.004-12.242-12.404 0-7.378 4.957-12.381 12.242-12.381h41.658v-29.79c0-7.493 4.957-12.404 12.241-12.404 7.378 0 12.242 5.004 12.242 12.381v29.79h41.658c7.377 0 12.241 5.026 12.241 12.404 0 7.4-4.957 12.404-12.241 12.404h-41.658z"  horiz-adv-x="1024" />

    
    <glyph glyph-name="huiyuankaihu" unicode="&#58888;" d="M752.37 351.448a231.586 231.586 0 0 0 95.664-18.432c28.833-12.127 55.134-29.589 77.608-51.416 21.45-22.205 38.804-47.966 51.416-76.207a231.918 231.918 0 0 0 19.025-93.561 224.148 224.148 0 0 0-19.025-93.4l-0.216 0.431a235.25 235.25 0 0 0-129.024-128.431 255.461 255.461 0 0 0-95.61-18.378 247.754 247.754 0 0 0-174.295 69.794 236.059 236.059 0 0 0-52.224 77.015 224.31 224.31 0 0 0-19.186 93.4v1.078a226.358 226.358 0 0 0 19.186 92.537 232.07 232.07 0 0 0 52.278 76.207 234.765 234.765 0 0 0 78.579 51.416 252.497 252.497 0 0 0 95.878 17.947zM529.409 309.41A282.57 282.57 0 0 1 456.92 120.4v-0.808a288.606 288.606 0 0 1 137-243.442H370.257c-178.446 0.215-316.362 5.012-316.362 97.657v19.456c0 186.745 142.12 316.2 333.393 316.2h142.12z m341.53-137.647a43.116 43.116 0 0 1-61.008 0l-62.949-62.95-61.332 61.44A43.116 43.116 0 0 1 624.64 109.3l91.46-91.46a43.062 43.062 0 0 1 54.271-5.443 43.116 43.116 0 0 1 9.109 6.898l91.459 91.514a43.116 43.116 0 0 1 0 60.9zM499.228 896a268.665 268.665 0 0 0 267.102-268.126 272.707 272.707 0 0 0-274.162-269.097A268.665 268.665 0 0 0 499.227 896z"  horiz-adv-x="1024" />

    
    <glyph glyph-name="yinhangkaguanli" unicode="&#58889;" d="M901.982 788.21H117.275C52.709 788.21 0.377 728.658 0.377 655.199v-114.795h1018.395V655.198c0 73.459-52.278 133.013-116.844 133.013z m116.844-338.782v-331.937c0-73.405-52.332-133.013-116.844-133.013H117.275C52.763-15.522 0.43 44.086 0.43 117.491V449.482h1018.395zM898.048 242.472h-57.937c-4.42 0-7.976-4.042-7.976-9.054v-125.036c0-4.958 3.557-9.054 7.976-9.054h57.937c4.365 0 7.923 4.096 7.923 9.108V233.472c0 4.958-3.558 9.054-7.923 9.054z m-88.819 0h-57.936c-4.42 0-7.977-4.042-7.977-9.054v-125.036c0-4.958 3.557-9.054 7.977-9.054h57.936c4.366 0 7.923 4.096 7.923 9.108V233.472c0 4.958-3.557 9.054-7.923 9.054z m-88.926 0h-57.937c-4.42 0-7.976-4.042-7.976-9.054v-125.036c0-4.958 3.557-9.054 7.976-9.054h57.937c4.42 0 7.923 4.096 7.923 9.108V233.472c0 4.958-3.503 9.054-7.923 9.054z"  horiz-adv-x="1024" />

    
    <glyph glyph-name="shouye_liebiaotubiao" unicode="&#58890;" d="M563.847 807.936a75.453 75.453 0 0 1-98.735 0L65.805 441.883a34.708 34.708 0 0 1-2.425-49.96 37.726 37.726 0 0 1 51.74-2.857l6.359 5.82v-382.005c0-18.863 7.76-36.972 21.558-50.338s32.552-20.857 52.116-20.857H409.6V155.81c0 13.258 5.443 26.03 15.198 35.462a52.817 52.817 0 0 0 36.703 14.66h100.89c13.744 0 26.948-5.282 36.703-14.66 9.7-9.431 15.198-22.204 15.198-35.462v-214.124h219.46c19.563 0 38.319 7.545 52.17 20.857 13.797 13.366 21.558 31.475 21.558 50.338V390.25c16.33-14.335 39.558-13.203 53.194 1.402a34.816 34.816 0 0 1-2.695 50.23l-394.078 366z"  horiz-adv-x="1024" />

    
    <glyph glyph-name="xinzhuce" unicode="&#58891;" d="M698.182 205.568a17.431 17.431 0 0 1-5.05 12.102 16.593 16.593 0 0 1-11.916 4.957H342.761a16.593 16.593 0 0 1-11.916-4.934 17.431 17.431 0 0 1-5.027-12.125 16.99 16.99 0 0 1 16.943-17.059h338.525a16.99 16.99 0 0 1 16.896 17.059z m-35.305 282.88c-0.046 0.047-0.14 0.093-0.163 0.186l-74.123 74.636a27.95 27.95 0 0 1-38.307-1.397c-0.024-0.023-0.07-0.116-0.163-0.162L357.329 367.663a17.082 17.082 0 0 1-4.794-14.406v-86.97c0-0.862 0.07-1.723 0.186-2.56 0.094-0.606 0.233-1.14 0.35-1.676a19.633 19.633 0 0 1 1.885-4.562l0.465-0.721a16.95 16.95 0 0 1 6.447-5.725l0.512-0.256a16.85 16.85 0 0 1 7.098-1.583h88.53a16.85 16.85 0 0 1 13.404 6.656l193.28 194.56a28.51 28.51 0 0 1-1.815 38.028z"  horiz-adv-x="1024" />

    
    <glyph glyph-name="yongjinbaobiao" unicode="&#58892;" d="M918.42 393.485l-373.544 0.378a29.103 29.103 0 0 0-29.05 29.049l-0.377 373.544a38.211 38.211 0 0 1-38.804 38.266 443.715 443.715 0 0 1-273.085-95.987 452.123 452.123 0 0 1-96.202-105.04 464.195 464.195 0 0 1-60.146-132.043 462.417 462.417 0 0 1-0.377-251.419 473.196 473.196 0 0 1 120.67-204.584 472.28 472.28 0 0 1 204.584-120.67c40.583-11.426 82.513-17.247 124.713-17.247 42.415 0 85.153 5.82 126.868 17.516a462.525 462.525 0 0 1 131.988 60.147 453.416 453.416 0 0 1 105.04 96.202 443.338 443.338 0 0 1 95.934 273.138 38.157 38.157 0 0 1-38.212 38.75zM963.907 632.077a394.294 394.294 0 0 1-363.52 240.91 33.415 33.415 0 0 1-33.414-33.415V477.94c0-8.947 3.557-17.462 9.808-23.66a33.2 33.2 0 0 1 23.606-9.81l361.095 0.378c18.486 0.054 33.415 15.09 33.415 33.577 0 53.355-10.456 104.987-30.99 153.6z"  horiz-adv-x="1024" />

    
    <glyph glyph-name="benyuechunli" unicode="&#58893;" d="M474.6 290.56a134.423 134.423 0 1 0 268.847 0 134.423 134.423 0 0 0-268.846 0z m175.78-57.484c7.587 6.633 11.403 15.407 11.427 26.275 0 9.426-3.398 17.455-10.24 24.11-6.843 6.634-18.13 12.545-33.886 17.735v37.19c12.568-1.234 23.925-4.655 33.979-10.217v26.53c-7.47 3.794-18.781 6.028-33.979 6.68v17.873h-15.778v-18.269c-13.173-1.187-23.739-5.376-31.744-12.614-7.983-7.237-11.986-16.011-11.986-26.298 0-9.542 3.072-17.664 9.24-24.296 6.143-6.633 17.64-12.8 34.49-18.502v-35.747a92.998 92.998 0 0 0-22.11 4.515c-8.285 2.606-14.522 5.469-18.688 8.54v-27.228c12.568-5.935 26.182-8.96 40.798-9.03v-20.713h15.732v21.318c14.196 1.443 25.088 5.47 32.721 12.102zM616.913 275.642v-31.092c9.216 1.49 13.824 6.4 13.824 14.662 0 6.702-4.608 12.171-13.824 16.43z m-31.092 44.498c0-6.75 4.608-12.335 13.824-16.873v31.092c-9.216-1.629-13.824-6.376-13.824-14.196zM302.825 511.44c0-45.312 74.03-82.036 165.376-82.036 91.322 0 165.376 36.724 165.376 82.036 0 45.29-74.054 82.014-165.376 82.014-91.346 0-165.376-36.725-165.376-82.037zM520.61 408.413c-16.593-2.886-34.07-4.212-52.41-4.212-78.708 0-144.593 27.206-161.396 63.907-2.653-5.981-4.189-11.94-4.189-18.363 0-45.312 74.054-82.013 165.353-82.013 4.422 0 8.61 0.21 13.033 0.443a155.601 155.601 0 0 0 39.587 40.238z m108.754 22.319c2.886 5.98 4.655 12.38 4.655 18.804 0 6.19-1.56 12.381-4.19 18.339-5.98-13.033-18.385-24.762-34.955-34.49 2.211 0.232 4.655 0.442 7.075 0.442 9.076-0.233 18.362-1.094 27.415-3.095zM468.2 349.812c-78.708 0-144.593 27.183-161.396 63.884-2.653-5.958-4.189-11.939-4.189-18.339 0-43.985 69.842-80.035 157.836-82.013a135.963 135.963 0 0 0 11.054 36.468h-3.304zM458.915 296.099c-74.52 1.978-135.983 28.742-151.901 63.674-2.653-5.981-4.19-11.962-4.19-18.362 0-44.218 70.75-80.477 159.186-82.013a144.407 144.407 0 0 0-3.537 30.953 54.458 54.458 0 0 1 0.442 5.748zM307.014 305.594c-2.653-5.98-4.19-11.939-4.19-18.362 0-45.312 74.055-82.013 165.377-82.013 6.19 0 12.148 0.233 18.13 0.442a144.035 144.035 0 0 0-19.015 36.05c-78.266 0.442-143.709 27.857-160.302 63.883z"  horiz-adv-x="1024" />

    
    <glyph glyph-name="kf" unicode="&#58894;" d="M951.068 600.064c-80.1 160.142-249.856 262.372-436.451 262.542-190.18 0-362.667-105.927-440.889-270.677-78.28-164.693-47.787-357.831 78.052-493.454l12.572-13.483-0.114-189.44 222.777 63.147 13.141-3.015c181.362-41.814 371.826 19.228 489.416 156.9 117.589 137.556 141.653 327.28 61.44 487.48zM297.7 366.364c0 17.067 9.557 32.712 24.974 41.245a52.28 52.28 0 0 0 50.119 0c15.587-8.533 25.031-24.178 25.031-41.245 0-72.135 49.323-117.19 116.793-117.19 67.356 0 116.85 45.055 116.85 117.19 0 26.283 22.47 47.616 50.119 47.616 27.705 0 50.119-21.333 50.119-47.616-0.114-125.61-95.46-212.366-217.088-212.366S297.7 240.754 297.7 366.364z"  horiz-adv-x="1024" />

    
    <glyph glyph-name="huoyuehuiyuan" unicode="&#58895;" d="M460.893 616.727s150.807-30.813 167.61-184.925c0 0 19.247 49.106 58.904 53.97 0 0-12.195-26.997 0-67.445 0 0 120.133-201.448-90.927-280.11l-1.63-0.605a40.584 40.584 0 0 1 6.657 8.96l1.233 2.42c9.705 19.293 34.211 86.225-78.033 184.6 0 0-32.256-65.49-51.596-88.6-0.023-0.047-51.502-56.134-2.187-109.754a14.569 14.569 0 0 1 2.42-2.071 6.05 6.05 0 0 0-0.256 0.07s-220.44 47.15-121.926 281.227c0 0 22.389-25.972 19.27-38.516 0 0 17.57 59.112 55.39 94.394 32.511 30.324 65.535 115.572 35.071 146.385z"  horiz-adv-x="1024" />

    
    <glyph glyph-name="tuiguanglianjie" unicode="&#58896;" d="M755.227 877.406c-22.636 22.636-59.284 22.636-81.92 0L427.763 631.7a57.883 57.883 0 0 1 0-81.92l40.852-40.852L714.32 754.58l163.786-163.84L632.4 345.142l40.96-40.96c22.636-22.636 59.284-22.636 81.92 0l245.598 245.652c22.636 22.636 22.636 59.284 0 81.92L755.227 877.406zM304.883 17.624l-163.84 163.84 245.76 245.598-41.014 40.96a57.883 57.883 0 0 1-81.866 0L18.324 222.37c-22.636-22.636-22.636-59.338 0-81.92l245.652-245.653c22.636-22.635 59.285-22.635 81.867 0L591.495 140.45c22.636 22.582 22.636 59.284 0 81.92l-40.906 40.906-245.653-245.652z m122.88 204.8L673.36 468.022a57.883 57.883 0 1 1-81.92 81.758L345.789 304.236a57.883 57.883 0 1 1 81.92-81.759z"  horiz-adv-x="1024" />

    
    <glyph glyph-name="timebeifen" unicode="&#58897;" d="M512 896a512 512 0 1 0 0-1024A512 512 0 0 0 512 896z m0-64a448 448 0 1 1 0-896 448 448 0 0 1 0 896zM355.392 630.4l158.4-158.4 158.4 158.4a32 32 0 0 0 45.248-45.248L580.224 448H736a32 32 0 1 0 0-64H544.896v-64H736a32 32 0 1 0 0-64H544.896v-159.36a32 32 0 1 0-64 0V256H288a32 32 0 0 0 0 64h192.896v64H288a32 32 0 0 0 0 64h159.296L310.144 585.152a32 32 0 0 0 45.248 45.248z"  horiz-adv-x="1024" />

    
    <glyph glyph-name="xinzhuce1" unicode="&#58898;" d="M698.182 205.568a17.431 17.431 0 0 1-5.05 12.102 16.593 16.593 0 0 1-11.916 4.957H342.761a16.593 16.593 0 0 1-11.916-4.934 17.431 17.431 0 0 1-5.027-12.125 16.99 16.99 0 0 1 16.943-17.059h338.525a16.99 16.99 0 0 1 16.896 17.059z m-35.305 282.88c-0.046 0.047-0.14 0.093-0.163 0.186l-74.123 74.636a27.95 27.95 0 0 1-38.307-1.397c-0.024-0.023-0.07-0.116-0.163-0.162L357.329 367.663a17.082 17.082 0 0 1-4.794-14.406v-86.97c0-0.862 0.07-1.723 0.186-2.56 0.094-0.606 0.233-1.14 0.35-1.676a19.633 19.633 0 0 1 1.885-4.562l0.465-0.721a16.95 16.95 0 0 1 6.447-5.725l0.512-0.256a16.85 16.85 0 0 1 7.098-1.583h88.53a16.85 16.85 0 0 1 13.404 6.656l193.28 194.56a28.51 28.51 0 0 1-1.815 38.028z"  horiz-adv-x="1024" />

    
    <glyph glyph-name="time" unicode="&#58899;" d="M294.08 896c22.272 0 40.384-18.176 40.384-40.384v-55.872h344.704V855.616C679.168 877.824 697.344 896 719.616 896h5.376c22.208 0 40.32-18.176 40.32-40.384v-55.872H894.72c65.728 0 119.168-53.504 119.168-119.168v-689.408A119.296 119.296 0 0 0 894.72-128H119.168A119.296 119.296 0 0 0 0-8.832V680.576C0 746.24 53.44 799.744 119.168 799.744H248.32V855.616C248.32 877.824 266.496 896 288.704 896h5.376z m600.64-162.24H765.312v-55.936c0-22.272-18.048-40.32-40.32-40.32h-5.376a40.512 40.512 0 0 0-40.384 40.32l-0.064 55.936H334.464v-55.936a40.512 40.512 0 0 0-40.32-40.32h-5.504a40.512 40.512 0 0 0-40.32 40.32l-0.064 55.936H119.168a53.248 53.248 0 0 1-53.184-53.184v-689.408c0-29.312 23.872-53.184 53.12-53.184h775.68a53.248 53.248 0 0 1 53.12 53.12V680.64a53.248 53.248 0 0 1-53.12 53.12zM549.952 249.6c23.68 0 43.072-19.392 43.072-43.072 0-23.68-19.392-43.072-43.072-43.072h-86.208a43.2 43.2 0 0 0-43.072 43.072c0 23.68 19.392 43.072 43.072 43.072h86.208z m-258.56 0c23.68 0 43.136-19.392 43.136-43.072 0-23.68-19.392-43.072-43.136-43.072h-86.144a43.2 43.2 0 0 0-43.072 43.072c0 23.68 19.392 43.072 43.072 43.072h86.144z m0 215.488c23.68 0 43.136-19.392 43.136-43.136 0-23.68-19.392-43.072-43.136-43.072h-86.144a43.2 43.2 0 0 0-43.072 43.072c0 23.68 19.392 43.136 43.072 43.136h86.144z m517.12 0c23.68 0 43.008-19.392 43.008-43.136 0-23.68-19.328-43.072-43.072-43.072h-86.144a43.2 43.2 0 0 0-43.136 43.072c0 23.68 19.392 43.136 43.136 43.136h86.144z m-258.56 0c23.68 0 43.072-19.392 43.072-43.136 0-23.68-19.392-43.072-43.072-43.072h-86.208a43.2 43.2 0 0 0-43.072 43.072c0 23.68 19.392 43.136 43.072 43.136h86.208z"  horiz-adv-x="1024" />

    
    <glyph glyph-name="yongjinqianbao" unicode="&#58900;" d="M512 896c282.767 0 512-229.233 512-512s-229.233-512-512-512S0 101.233 0 384 229.233 896 512 896zM327.68 401.49h-24.863a15.933 15.933 0 0 1-16.097-16.118v-181.391a48.21 48.21 0 0 1 48.271-48.272H709.49a48.21 48.21 0 0 1 48.271 48.272V385.372a15.933 15.933 0 0 1-16.097 16.097H716.8v-31.518l-0.102-3.154c-1.803-24.965-24.781-44.647-52.962-44.647H380.744l-3.482 0.123c-27.75 1.618-49.582 22.303-49.582 47.678V401.49z m245.76-140.37a20.48 20.48 0 0 0 0-40.96h-81.92l-2.396 0.143a20.48 20.48 0 0 0 2.396 40.817z m75.162 368.64H398.11a48.21 48.21 0 0 1-48.272-48.271v-193.106a48.21 48.21 0 0 1 48.272-48.272h250.532a48.21 48.21 0 0 1 48.27 48.272V581.489a48.21 48.21 0 0 1-48.311 48.271z m-158.577-70.41l2.519-0.082c4.24-0.492 8.11-2.663 10.732-6l22.855-28.652 22.2 27.361c5.469 7.086 15.77 8.376 22.2 2.58 7.087-5.468 8.05-15.77 2.581-22.528l-13.844-17.387h3.236c9.01 0 16.076-7.066 16.076-16.077 0-9.011-7.065-16.097-16.076-16.097H541.9v-4.506h20.603c9.01 0 16.076-7.086 16.076-16.097 0-9.011-7.065-16.097-16.076-16.097H541.9v-10.281c0-9.011-7.086-16.098-16.097-16.098a15.933 15.933 0 0 0-16.098 16.098v10.28h-20.582a15.933 15.933 0 0 0-16.097 16.098c0 9.011 7.086 16.097 16.097 16.097h20.582v4.506h-20.582a15.933 15.933 0 0 0-16.097 16.097c0 9.011 7.086 16.077 16.097 16.077h3.85l-14.807 18.678a15.954 15.954 0 0 0 2.58 22.528 16.034 16.034 0 0 0 11.797 3.42z"  horiz-adv-x="1024" />

    
    <glyph glyph-name="xiugaimima1" unicode="&#58901;" d="M549.996 896c149.288 0 276.372-121.587 276.372-276.372h-0.377l0.054-0.647c0-28.349-21.45-51.739-48.99-54.703l-5.93-0.27a54.973 54.973 0 0 0-54.972 55.62c-0.323 88.387-72.219 165.834-166.157 165.834h-60.793c-88.442 0-165.835-71.896-165.835-165.834v-89.843h559.697a53.895 53.895 0 0 0 53.895-53.894v-549.996A53.895 53.895 0 0 0 883.065-128h-721.38a53.895 53.895 0 0 0-53.896 53.895V475.89a53.895 53.895 0 0 0 53.895 53.894h51.146v89.843C212.83 768.808 334.417 896 489.203 896z m-26.247-581.794H521a53.895 53.895 0 0 1-53.894-53.894v-113.287A53.895 53.895 0 0 1 521 93.13h2.695a53.895 53.895 0 0 1 53.895 53.895V260.312a53.895 53.895 0 0 1-53.895 53.894z"  horiz-adv-x="1024" />

    
    <glyph glyph-name="xiajidaichong" unicode="&#58902;" d="M639.407 786.163c144.007-80.142 240.694-232.34 240.694-407.121A463.01 463.01 0 0 0 639.57-28.025C853.369-15.63 1024 163.193 1024 379.042a407.875 407.875 0 0 1-384.593 407.12z m183.08-407.121c0 226.196-182.918 409.169-411.216 409.169C185.075 788.21 0 605.238 0 379.04 0 152.9 182.973-30.072 411.217-30.072c228.19 0 411.27 182.972 411.27 409.115z m-240.532-71.95c18.486 0 34.978-12.396 34.978-37.08 0-24.683-14.444-37.025-35.032-37.025h-113.07v-61.71c0-32.875-20.535-49.367-55.512-49.367s-55.512 16.492-55.512 49.367v61.71H244.628c-20.588 2.102-34.977 14.444-34.977 39.128 0 24.683 14.39 32.875 34.977 34.977h113.18v37.026h-113.18c-20.588 2.048-34.977 14.39-34.977 37.026 0 22.635 14.39 32.875 34.977 34.977h84.345L248.67 553.768c-16.438 26.732-18.486 57.614 6.198 72.004 22.636 16.438 51.416 6.144 67.908-18.54l90.435-162.33L512 609.28c14.39 24.684 37.026 41.176 65.805 24.684 24.684-12.342 22.636-43.17 10.294-69.902l-92.537-147.94h86.393c20.534-2.103 34.978-8.247 34.978-35.032 0-26.732-14.444-36.972-35.032-36.972h-113.07v-35.032l113.178-1.994z"  horiz-adv-x="1024" />

    
    <glyph glyph-name="tuiguangsucai" unicode="&#58903;" d="M606.154 788.103H135.707A130.91 130.91 0 0 1 5.12 665.762l-0.27-8.623V38.75a130.91 130.91 0 0 1 122.234-130.587l8.623-0.27h755.389a130.91 130.91 0 0 1 130.587 122.288l0.269 8.623v33.523a38.696 38.696 0 0 1 0.97 14.875l-0.97 5.066 0.054 386.748a39.72 39.72 0 0 1-79.387 0v-192.404a817.368 817.368 0 0 1-47.104 83.106l-9.27 13.581c-31.852 45.541-63.165 72.866-95.286 83.376a91.837 91.837 0 0 1-84.507-12.774c-87.31-61.44-190.356-194.937-242.688-267.156a915.133 915.133 0 0 1-37.564 50.338c-59.446 74.267-111.563 113.826-159.044 120.616-30.18 4.312-57.775-4.257-79.926-25.007-31.96-29.75-62.895-66.183-89.68-101.322l-13.043-17.354v443.23c0 26.14 19.833 47.913 45.272 50.877l5.928 0.323h470.447a39.882 39.882 0 0 1 5.39 79.333l-5.39 0.378zM312.967 595.052a69.255 69.255 0 1 1 0-138.456 69.255 69.255 0 0 1 0 138.51zM889.64 879.616a40.421 40.421 0 0 1-40.42-40.421V785.3h-53.895a40.421 40.421 0 0 1 0-80.842h53.894v-53.895a40.421 40.421 0 1 1 80.842 0v53.895h53.895a40.421 40.421 0 1 1 0 80.842h-53.895V839.195a40.421 40.421 0 0 1-40.42 40.421z"  horiz-adv-x="1024" />

    
    <glyph glyph-name="lx" unicode="&#58904;" d="M999.083 377.344c0-267.947-215.61-483.556-483.556-483.556A482.418 482.418 0 0 0 31.972 377.344C31.972 645.291 247.58 860.9 515.527 860.9s483.556-215.61 483.556-483.556zM293.888 564.736c-34.247-34.247-2.048-161.166 122.88-286.151 124.928-124.871 251.847-157.127 286.151-122.88 30.151 30.265 80.555 64.512 14.052 118.898s-86.642 28.217-116.85-3.983c-22.187-22.186-74.525 24.121-120.889 70.486-46.364 46.307-90.68 100.693-70.542 120.889 32.256 30.208 56.434 48.355 2.048 116.85-54.386 68.494-88.633 16.099-116.85-14.109z"  horiz-adv-x="1024" />

    
    <glyph glyph-name="yiloushenqing" unicode="&#58905;" d="M882.634 696.212v82.729h71.303V864.47H93.56v-85.53h71.25v-82.783c0-56.59 24.952-110.646 69.523-150.69l160.499-144.006a29.103 29.103 0 0 0 0-44.032L234.334 213.208c-44.463-39.883-69.524-94.047-69.524-150.636v-82.729H93.561v-85.477h860.591v85.531h-71.518V62.68c0 56.59-25.007 110.645-69.578 150.635l-160.39 144.277a29.103 29.103 0 0 0 0 44.032l160.39 144.06c44.517 39.775 69.578 93.993 69.578 150.582zM593.651 304.505l85.207-76.315H368.802l85.207 76.315c46.026 41.5 46.026 108.76 0 150.259L293.565 598.932c-28.888 25.816-45.11 61.01-45.002 97.657v92.807h550.804v-93.238c0-36.648-16.169-71.841-45.056-97.657L593.92 454.28c-46.242-41.284-46.242-108.544-0.27-149.828v0.054z"  horiz-adv-x="1024" />

    
    <glyph glyph-name="huiyuanliebiao" unicode="&#58906;" d="M1018.826 496.317a39.99 39.99 0 0 1-7.06 13.473L812.894 770.64a43.978 43.978 0 0 1-34.816 17.247H243.227a44.517 44.517 0 0 1-38.158-22.097L9.54 508.712a53.571 53.571 0 0 1-7.114-13.473c-4.85-14.552-2.156-30.72 9.27-42.577l461.34-503.916c2.155-3.234 4.365-5.928 7.652-8.623 2.156-2.156 4.312-3.773 7.06-5.39 16.33-10.778 38.158-9.7 53.356 3.773a37.888 37.888 0 0 1 10.402 14.552l458.644 500.682a43.547 43.547 0 0 1 8.677 42.577z m-248.4-87.849l-220-240.37-3.287-3.234a43.763 43.763 0 0 0-58.853 0l-4.85 4.85L265 408.469a42.954 42.954 0 0 0 2.695 60.901 44.086 44.086 0 0 0 61.548-2.694l188.47-205.878 188.47 205.878a43.6 43.6 0 0 0 61.548 2.694c17.946-16.168 19.078-43.654 2.694-60.9z"  horiz-adv-x="1024" />

    
    <glyph glyph-name="icon_title_xz" unicode="&#58907;" d="M492.476 789.572c0 26.966 22.186 49.22 49.493 49.22h0.273c27.17 0 49.152-22.05 49.152-49.288V309.18L779.06 496.845a49.493 49.493 0 0 0 69.905-69.974l-272.042-272.11a49.425 49.425 0 0 0-69.974 0L234.906 426.87a49.493 49.493 0 0 0 69.973 69.974L492.476 309.18V789.572zM175.24 49.698a24.85 24.85 0 0 1 17.612-7.304h704.171a24.917 24.917 0 0 1 24.917 24.917V264.124a49.425 49.425 0 1 0 98.987-0.137v-196.676a123.836 123.836 0 0 0-123.904-123.836H192.717a123.767 123.767 0 0 0-123.7 123.904V263.987a49.493 49.493 0 1 0 98.987 0V67.38c0-6.622 2.594-12.97 7.237-17.75z"  horiz-adv-x="1092" />

    


  </font>
</defs>
</svg>
