<?xml version="1.0" standalone="no"?><!DOCTYPE svg PUBLIC "-//W3C//DTD SVG 1.1//EN" "http://www.w3.org/Graphics/SVG/1.1/DTD/svg11.dtd"><svg t="1620742726563" class="icon" viewBox="0 0 1024 1024" version="1.1" xmlns="http://www.w3.org/2000/svg" p-id="2348" width="48" height="48" xmlns:xlink="http://www.w3.org/1999/xlink"><defs><style type="text/css"></style></defs><path d="M512 0c282.7776 0 512 229.2224 512 512s-229.2224 512-512 512S0 794.7776 0 512 229.2224 0 512 0z m0 68.096C267.8272 68.096 68.096 267.776 68.096 512S267.776 955.904 512 955.904s443.904-199.7312 443.904-443.904S756.224 68.096 512 68.096z m0 63.3856c209.2544 0 380.5184 171.264 380.5184 380.5184S721.2544 892.5184 512 892.5184 131.4816 721.2544 131.4816 512 302.7456 131.4816 512 131.4816z m179.2 169.6768a30.6688 30.6688 0 0 0-44.4416 0l-134.8096 134.656-134.7072-134.656a30.6688 30.6688 0 0 0-44.3904 0 30.6688 30.6688 0 0 0 0 44.3904L435.8656 448.512h-82.432c-17.408 0-31.6928 14.336-31.6928 31.744 0 17.408 14.2848 31.6928 31.744 31.6928H480.256v95.1296H353.4848c-17.4592 0-31.744 14.2848-31.744 31.744 0 17.408 14.2848 31.6416 31.744 31.6416H480.256v95.1296c0 17.4592 14.336 31.744 31.744 31.744 17.408 0 31.744-14.2848 31.744-31.744v-95.1296h126.7712c17.4592 0 31.744-14.2336 31.744-31.6928 0-17.408-14.2848-31.6928-31.744-31.6928H543.744V512h126.8224c17.4592 0 31.744-14.2848 31.744-31.744 0-17.408-14.2848-31.6416-31.744-31.6416l-82.432-0.0512L691.2 345.5488a30.6688 30.6688 0 0 0 0-44.3904z" p-id="2349"></path></svg>